<svg width="37" height="37" viewBox="0 0 37 37" fill="none" xmlns="http://www.w3.org/2000/svg">
<g clip-path="url(#clip0_62_1992)" filter="url(#filter0_d_62_1992)">
<path fill-rule="evenodd" clip-rule="evenodd" d="M6.03854 2.03854C4 4.07707 4 7.35803 4 13.92V15.08C4 21.642 4 24.9229 6.03854 26.9615C8.07707 29 11.358 29 17.92 29H19.08C25.642 29 28.9229 29 30.9615 26.9615C33 24.9229 33 21.642 33 15.08V13.92C33 7.35803 33 4.07707 30.9615 2.03854C28.9229 0 25.642 0 19.08 0H17.92C11.358 0 8.07707 0 6.03854 2.03854ZM8.89382 8.82089C9.05091 16.3609 12.8209 20.8921 19.4305 20.8921H19.8051V16.5784C22.2339 16.8201 24.0704 18.5963 24.8075 20.8921H28.2392C27.2967 17.4605 24.8195 15.5634 23.2729 14.8384C24.8195 13.9442 26.9945 11.7692 27.5141 8.82089H24.3965C23.7199 11.2134 21.7143 13.3884 19.8051 13.5938V8.82089H16.6875V17.1826C14.7542 16.6992 12.3134 14.3551 12.2046 8.82089H8.89382Z" fill="white" fill-opacity="0.5"/>
</g>
<defs>
<filter id="filter0_d_62_1992" x="0" y="0" width="37" height="37" filterUnits="userSpaceOnUse" color-interpolation-filters="sRGB">
<feFlood flood-opacity="0" result="BackgroundImageFix"/>
<feColorMatrix in="SourceAlpha" type="matrix" values="0 0 0 0 0 0 0 0 0 0 0 0 0 0 0 0 0 0 127 0" result="hardAlpha"/>
<feOffset dy="4"/>
<feGaussianBlur stdDeviation="2"/>
<feComposite in2="hardAlpha" operator="out"/>
<feColorMatrix type="matrix" values="0 0 0 0 0 0 0 0 0 0 0 0 0 0 0 0 0 0 0.25 0"/>
<feBlend mode="normal" in2="BackgroundImageFix" result="effect1_dropShadow_62_1992"/>
<feBlend mode="normal" in="SourceGraphic" in2="effect1_dropShadow_62_1992" result="shape"/>
</filter>
<clipPath id="clip0_62_1992">
<rect width="29" height="29" fill="white" transform="translate(4)"/>
</clipPath>
</defs>
</svg>
