<svg width="1771" height="827" viewBox="0 0 1771 827" fill="none" xmlns="http://www.w3.org/2000/svg">
<g opacity="0.1">
<path d="M-3.39302 29.8982C36.9257 -34.7463 111.443 -59.6466 155.28 -42.2052C199.116 -24.7637 221.779 22.0404 249.155 61.4946C276.423 100.869 314.583 135.205 371.113 122.056C443.407 105.222 522.438 16.3111 593.95 3.05972C649.658 -7.36708 683.025 32.5985 696.977 80.776C704.769 108.095 703.079 142.871 708.392 171.974C732.436 304.008 626.46 459.885 676.764 531.377C731.064 608.846 812.951 579.373 856.395 548.876C911.73 509.919 1039.45 396.847 1036.46 251.156C1035.33 191.875 1036.25 130.49 1051.46 64.9028C1074.33 -33.3084 1158.26 -147.437 1244.43 -179.317C1303.47 -201.153 1357.88 -185.108 1416.59 -225.47C1456.14 -252.719 1488.86 -301.046 1505.72 -347.149C1522.46 -393.331 1525.33 -437.493 1522.47 -477.263" stroke="#8A8A8A" stroke-miterlimit="10"/>
<path d="M-4.07769 34.1034C38.9825 -31.3018 115.27 -59.0674 161.125 -42.0932C205.976 -25.5777 229.317 21.4399 255.64 62.331C281.79 102.542 317.279 138.238 371.328 128.252C440.482 115.481 517.94 32.618 588.822 20.0051C645.189 10.0553 680.81 45.5706 697.771 91.2375C707.516 117.49 707.949 151.879 714.002 181.799C739.318 308.656 637.879 460.376 686.902 530.64C739.641 606.121 819.073 579.551 862.428 550.095C917.389 512.8 1040 403.739 1040.15 262.019C1040.22 203.622 1042.88 142.14 1058.16 77.1577C1080.58 -18.6043 1161.19 -129.08 1244.67 -162.099C1302.41 -184.894 1356.51 -171.854 1414.7 -211.495C1454.48 -238.584 1487.78 -285.649 1506.32 -331.071C1525.01 -376.933 1530.6 -421.594 1529.82 -462.605" stroke="#909090" stroke-miterlimit="10"/>
<path d="M-4.68792 38.3658C41.1099 -27.8038 119.16 -58.433 167.138 -41.8422C212.868 -26.0682 236.995 21.2482 262.416 63.141C287.338 104.114 320.153 141.174 371.957 134.253C437.988 125.288 513.842 48.7292 584.327 36.657C641.481 27.0061 679.198 58.517 699.058 101.599C710.754 126.788 713.419 160.874 720.103 191.532C746.317 313.507 649.797 460.798 697.668 529.664C748.732 603.086 825.701 579.421 869.073 551.086C923.414 515.552 1041.29 410.22 1044.56 272.455C1045.96 214.756 1050.14 153.272 1065.72 88.7896C1087.8 -4.45123 1164.96 -111.361 1245.76 -145.515C1302.19 -169.269 1356.08 -159.149 1413.76 -198.33C1453.89 -225.439 1487.65 -271.064 1507.63 -315.708C1528.16 -361.333 1536.35 -406.578 1537.77 -448.753" stroke="#959595" stroke-miterlimit="10"/>
<path d="M-5.29861 42.6325C43.1047 -24.1213 122.918 -57.614 173.043 -41.6668C219.782 -26.8146 244.587 20.7209 269.06 64.1357C292.622 106.051 323.135 144.195 372.321 140.618C435.205 135.72 509.37 65.1253 579.327 53.7742C637.266 44.4221 677.103 71.6685 700.08 112.325C713.727 136.451 718.516 170.153 725.808 201.811C752.919 318.903 661.428 461.845 707.905 529.412C757.294 600.777 831.668 580.196 875.189 552.801C929.15 518.928 1042.15 417.505 1048.32 283.797C1050.94 226.717 1056.95 165.47 1072.38 101.428C1094.36 10.6076 1167.82 -92.6354 1245.81 -127.746C1301.06 -152.638 1354.64 -145.519 1411.66 -183.798C1452.14 -210.928 1486.35 -255.113 1508.01 -299.079C1530.24 -344.287 1541.28 -390.217 1544.78 -433.635" stroke="#9B9B9B" stroke-miterlimit="10"/>
<path d="M-5.9084 46.8928C45.2325 -20.6254 126.677 -56.8015 178.948 -41.4977C226.565 -27.3871 252.179 20.1872 275.728 64.8637C298.062 107.542 326.009 147.13 372.6 146.638C432.229 145.726 504.79 81.4352 574.351 70.6248C632.967 61.4918 675.141 84.6334 701.017 122.704C716.616 145.767 723.637 179.166 731.56 211.563C759.304 324.132 672.974 462.545 718.189 528.635C766.013 598.021 837.814 580.265 881.352 553.99C934.693 521.879 1043.08 424.003 1052.23 294.692C1056.18 238.31 1063.83 176.88 1079.3 113.698C1101.08 25.2195 1170.95 -74.2769 1246.25 -110.523C1300.33 -136.554 1353.57 -132.175 1409.96 -169.813C1450.79 -196.964 1485.58 -239.89 1508.55 -282.897C1532.75 -328.048 1546.26 -374.382 1551.96 -418.963" stroke="#A0A0A0" stroke-miterlimit="10"/>
<path d="M-6.40839 51.2327C47.4701 -17.05 130.786 -56.0097 185.072 -41.1692C233.591 -28.0602 260.1 19.8927 282.592 66.0112C303.697 109.451 328.947 150.664 373.183 153.157C429.666 156.31 500.647 98.0642 569.57 87.895C628.973 79.0608 673.507 97.8375 702.018 133.684C719.677 155.763 728.713 188.699 737.376 221.915C765.667 329.622 684.498 463.506 728.559 528.196C774.708 595.525 844.047 580.673 887.71 555.599C940.431 525.249 1044.32 431.001 1056.22 305.927C1061.64 250.063 1070.78 188.891 1086.44 126.129C1107.88 40.1712 1174.44 -55.9391 1246.79 -92.9613C1299.56 -119.95 1352.48 -118.572 1408.34 -155.488C1449.52 -182.66 1484.9 -224.326 1509.31 -266.556C1535.34 -311.469 1551.46 -358.387 1559.35 -404.133" stroke="#A6A6A6" stroke-miterlimit="10"/>
<path d="M-7.01905 55.4974C49.597 -13.5497 134.544 -55.1927 190.976 -40.9956C240.373 -28.6282 267.691 19.3634 289.259 66.7438C309.136 110.946 331.711 153.523 373.703 159.08C427.039 166.3 496.307 114.278 564.966 104.469C625.155 95.9342 672.158 110.426 703.327 143.787C722.938 164.803 734.097 197.355 743.609 231.47C772.183 334.676 696.657 463.83 739.456 527.042C783.931 592.312 850.806 580.365 894.486 556.411C946.718 527.642 1046.11 437.023 1060.77 316.186C1067.41 260.94 1078.27 199.925 1094 137.763C1115.09 54.3266 1178.2 -38.2172 1247.87 -76.3756C1299.46 -104.503 1352.05 -105.865 1407.27 -142.14C1448.69 -169.412 1484.77 -209.739 1510.72 -251.111C1538.71 -295.707 1557.56 -343.39 1567.4 -390.199" stroke="#ABABAB" stroke-miterlimit="10"/>
<path d="M-7.629 59.7542C51.5926 -9.87716 138.302 -54.3837 196.881 -40.8301C247.156 -29.2043 275.525 18.7256 295.795 67.6484C314.576 112.432 334.453 156.634 373.958 165.356C424.039 176.562 491.835 130.664 559.857 121.497C620.832 113.26 670.196 123.387 704.132 154.344C725.935 174.196 739.086 206.545 749.228 241.399C778.086 340.103 708.093 464.447 749.608 526.44C792.408 589.653 856.688 580.791 900.517 557.777C952.261 530.589 1047.28 443.418 1064.54 327.258C1072.65 272.529 1085 211.773 1100.68 150.131C1121.46 68.9556 1181.12 -20.0219 1247.94 -58.8761C1298.25 -88.2221 1350.5 -92.3239 1405.19 -127.878C1446.96 -155.171 1483.73 -194.159 1510.89 -234.652C1540.84 -279.191 1562.17 -327.278 1574.09 -375.33" stroke="#B1B1B1" stroke-miterlimit="10"/>
<path d="M-8.23864 64.0204C53.7205 -6.37536 142.061 -53.5651 202.895 -40.5752C254.049 -29.6909 283.226 18.2779 302.549 68.7225C320.102 114.269 337.545 159.735 374.432 171.801C421.367 187.073 487.45 147.4 555.076 138.773C616.705 131.016 668.67 136.677 705.132 165.329C728.887 184.118 744.161 216.084 755.043 251.757C783.943 346.06 719.593 465.673 760.087 526.088C801.321 587.322 863.029 581.285 906.875 559.392C957.889 533.886 1048.89 450.141 1068.54 338.499C1078.13 284.028 1091.94 223.79 1107.69 162.748C1128.13 84.0939 1184.6 -1.67788 1248.47 -41.3078C1297.74 -71.9725 1349.52 -78.6343 1403.71 -113.728C1445.83 -141.041 1483.05 -178.589 1511.89 -218.405C1543.78 -262.627 1567.61 -311.377 1581.72 -360.593" stroke="#B7B7B7" stroke-miterlimit="10"/>
<path d="M-8.84989 68.2822C55.8468 -2.87805 145.818 -52.7512 208.799 -40.4047C260.831 -30.2621 290.817 17.7455 309.216 69.452C325.54 115.76 340.417 162.671 374.819 177.902C418.498 197.16 483.11 163.611 550.207 155.705C612.622 148.247 667.08 149.363 706.176 175.79C732.124 193.415 749.148 225.278 760.903 261.591C789.953 351.572 731.27 466.195 770.479 525.392C810.038 584.568 869.283 581.435 913.277 560.481C963.803 536.557 1050.81 455.979 1072.58 349.215C1083.63 295.262 1098.82 235.202 1114.87 174.66C1134.97 98.5269 1188.02 16.0613 1249.18 -24.4446C1297.27 -56.2479 1348.72 -65.65 1402.27 -100.102C1444.6 -127.256 1482.65 -163.645 1512.82 -202.762C1546.79 -246.847 1573.09 -296.002 1589.29 -346.462" stroke="#BCBCBC" stroke-miterlimit="10"/>
<path d="M-9.35105 72.6245C58.0832 0.699813 149.662 -51.5964 214.812 -40.1536C267.723 -30.7525 298.759 17.1934 315.97 70.5222C331.197 117.412 343.268 165.868 375.183 184.264C415.848 207.408 478.615 180.263 545.34 172.638C608.54 165.478 665.49 162.049 707.222 186.252C735.253 202.634 754.269 234.293 766.763 271.425C795.724 357.185 743.056 466.797 781.003 524.515C818.888 581.633 875.561 581.326 919.79 561.652C969.827 539.309 1052.84 461.898 1076.97 359.912C1089.62 306.297 1106.16 246.674 1122.27 186.732C1142.03 113.121 1191.79 33.781 1249.98 -7.2405C1297.03 -40.3626 1347.89 -52.4045 1400.91 -86.1359C1443.6 -113.31 1482.34 -148.359 1513.82 -186.519C1549.74 -230.287 1578.53 -280.105 1596.92 -331.729" stroke="#C2C2C2" stroke-miterlimit="10"/>
<path d="M-9.96058 76.8883C60.0792 4.37949 153.421 -50.7803 220.718 -39.981C274.507 -31.3214 306.352 16.6632 322.638 71.2538C336.746 118.986 346.142 168.806 375.703 190.186C413.113 217.316 474.276 196.476 540.605 189.392C604.459 182.711 664.143 174.637 708.268 196.715C738.624 211.753 759.149 243.41 772.492 281.44C801.363 362.979 754.602 467.501 791.264 524.001C827.583 579.141 881.684 581.658 925.93 563.105C975.238 542.443 1054.84 468.079 1080.75 370.991C1094.99 317.714 1112.89 258.529 1128.95 199.107C1148.27 127.937 1194.96 51.6229 1250.18 10.0858C1296.08 -24.4349 1346.72 -39.1372 1398.97 -72.0472C1442 -99.2414 1481.44 -132.952 1514.25 -170.413C1552.35 -213.965 1583.51 -264.267 1603.98 -317.134" stroke="#C7C7C7" stroke-miterlimit="10"/>
<path d="M-10.5703 81.1469C62.2071 7.87358 157.18 -49.9695 226.732 -39.7338C281.29 -31.8957 314.295 16.1072 329.283 72.2402C342.295 120.554 348.993 171.998 376.068 196.544C410.331 227.74 469.914 212.944 535.605 206.501C600.246 200.119 662.422 187.5 709.182 207.353C741.622 221.147 764.006 252.782 778.221 291.451C806.87 368.949 766.016 468.381 801.658 523.301C836.169 576.563 887.831 581.725 932.202 564.372C981.022 545.291 1056.98 474.073 1084.66 381.884C1100.63 328.764 1119.64 270.118 1136.01 211.196C1154.98 142.547 1198.27 69.2793 1250.63 27.3065C1295.37 -8.61284 1345.65 -25.7953 1397.26 -58.0642C1440.65 -85.2789 1480.89 -117.57 1514.92 -154.413C1554.97 -197.647 1588.62 -248.614 1611.29 -302.644" stroke="#CDCDCD" stroke-miterlimit="10"/>
<path d="M-11.1809 85.4092C64.334 11.3715 160.915 -48.8948 232.636 -39.5627C287.941 -32.2859 322.019 15.3953 336.059 73.0502C347.975 121.946 351.866 174.935 376.565 202.725C407.572 237.907 465.551 229.415 530.846 223.513C596.141 217.611 661.073 200.085 710.337 217.895C744.86 230.445 769.103 262.057 784.19 301.365C812.508 374.742 777.67 469.163 812.159 522.685C844.996 573.889 894.194 581.956 938.582 565.723C986.804 548.143 1059.6 479.871 1088.78 392.941C1106.59 340.059 1126.72 281.951 1143.15 223.629C1161.91 157.321 1201.8 87.0991 1251.29 44.6906C1295.01 7.19239 1344.69 -12.3698 1395.91 -44.0979C1439.65 -71.3332 1480.58 -102.285 1515.92 -138.17C1558.02 -181.007 1594.06 -232.718 1618.81 -287.992" stroke="#D2D2D2" stroke-miterlimit="10"/>
<path d="M-11.7908 89.6722C66.4617 14.87 164.541 -47.8993 238.541 -39.391C294.724 -32.8557 329.852 14.7637 342.595 73.9611C353.282 123.619 354.74 177.872 376.82 209.007C404.813 248.075 460.948 245.988 525.738 240.547C591.819 234.943 659.376 212.692 711.141 228.457C747.989 239.664 773.851 271.353 789.919 311.379C818.014 380.716 789.324 469.946 822.551 521.99C853.714 571.136 900.34 582.027 944.854 566.994C992.478 550.916 1062.22 485.67 1092.83 403.659C1112.47 351.013 1133.6 293.364 1150.2 235.722C1168.52 171.856 1205.13 104.5 1251.87 61.7354C1294.33 22.7587 1343.75 0.796184 1394.23 -30.3706C1438.31 -57.6264 1480.05 -87.1593 1516.61 -122.426C1560.9 -165.046 1599.31 -217.241 1626.14 -273.758" stroke="#D8D8D8" stroke-miterlimit="10"/>
<path d="M-12.2919 94.016C68.5662 18.6297 168.518 -46.9232 244.664 -39.0584C301.593 -33.0845 337.662 14.3935 349.59 74.9325C359.29 125.252 357.941 181.05 377.535 215.35C402.273 258.404 456.804 262.621 521.329 257.54C588.064 252.416 658.245 225.44 712.514 239.16C751.578 248.943 778.925 280.89 796.106 321.455C823.738 386.851 801.329 470.71 833.271 521.535C862.758 568.623 906.922 582.419 951.561 568.586C998.698 554.089 1065.39 491.868 1097.17 414.877C1118.89 362.369 1140.89 305.358 1157.45 248.236C1175.42 186.891 1208.66 122.321 1252.51 79.3813C1293.84 38.7459 1342.88 14.5633 1392.72 -15.9623C1437.02 -43.0584 1479.59 -71.4322 1517.58 -105.921C1563.93 -148.144 1604.72 -201.082 1633.75 -258.764" stroke="#DEDEDE" stroke-miterlimit="10"/>
<path d="M-12.9015 98.2764C70.6941 22.1256 172.144 -45.9304 250.569 -38.8893C308.376 -33.6569 345.496 13.7594 356.126 75.8409C364.73 126.742 360.574 184.085 377.814 221.369C399.537 268.309 452.224 278.931 516.244 274.311C583.765 269.485 656.571 237.784 713.342 249.46C754.489 257.999 783.564 290.103 801.749 331.127C828.918 392.583 812.789 471.07 843.446 520.677C871.5 565.607 912.982 582.147 957.615 569.695C1004.15 556.7 1068.14 497.484 1100.97 425.693C1124.88 373.401 1147.53 316.87 1164.39 260.247C1181.92 201.343 1211.88 139.639 1252.98 96.3437C1293.18 54.0495 1341.84 27.647 1391.04 -2.23748C1435.69 -29.3541 1478.93 -56.1285 1518.15 -89.9987C1566.54 -131.825 1609.73 -185.507 1640.94 -244.352" stroke="#E3E3E3" stroke-miterlimit="10"/>
<path d="M-13.512 102.542C72.8211 25.627 175.879 -44.8522 256.474 -38.7148C315.159 -34.224 353.329 13.1308 362.662 76.7547C370.278 128.318 363.447 187.025 378.069 227.654C396.778 278.48 447.729 295.586 511.244 291.427C579.419 287.081 654.981 250.474 714.256 260.105C757.618 267.22 788.179 299.582 807.478 341.145C834.292 398.74 824.443 471.856 853.838 519.984C880.217 562.856 919.128 582.222 963.887 570.969C1009.96 559.295 1071.22 503.344 1104.88 436.593C1131.08 384.598 1154.39 328.546 1171.31 272.524C1188.39 216.061 1214.98 157.143 1253.3 113.752C1292.02 69.8195 1340.64 41.1763 1389.2 11.933C1434.21 -15.2042 1478.24 -40.5594 1518.68 -73.8113C1569.14 -115.241 1614.81 -169.587 1648.12 -229.676" stroke="#E9E9E9" stroke-miterlimit="10"/>
<path d="M-14.1217 106.801C75.058 29.2009 179.638 -44.0414 262.488 -38.4675C321.919 -34.538 361.403 12.3946 369.548 77.6407C376.068 129.786 366.539 190.118 378.675 233.912C394.129 288.723 443.476 312.134 506.595 308.516C575.424 304.648 653.742 263.136 715.388 270.903C760.966 276.594 792.881 309.394 813.425 351.315C839.644 405.15 836.207 472.715 864.317 519.625C889.131 560.518 925.492 582.448 970.245 572.577C1015.72 562.403 1074.6 509.698 1109.01 447.647C1137.61 396.028 1161.36 340.295 1178.45 284.953C1195.19 231.012 1218.18 174.72 1253.96 131.132C1291.44 85.4613 1339.68 54.598 1387.71 26.0757C1433.07 -1.08203 1477.78 -24.8378 1519.68 -57.5718C1572.19 -98.6046 1620.25 -153.694 1655.75 -214.947" stroke="#EEEEEE" stroke-miterlimit="10"/>
<path d="M-14.7324 111.067C76.9438 32.8032 183.373 -42.9627 268.26 -38.1122C328.679 -34.8445 369.104 11.9466 375.951 78.7352C381.483 131.542 369.149 193.419 378.798 240.377C391.105 299.255 438.74 328.89 501.485 325.553C571.077 322.244 652.044 275.746 716.192 281.469C763.986 285.736 797.123 319.155 818.911 361.433C844.668 411.328 847.511 473.521 874.468 519.033C897.607 557.868 931.396 582.623 976.274 573.952C1021.39 565.18 1077.63 516.079 1112.78 458.728C1143.88 407.826 1167.84 352.253 1185.37 297.23C1201.66 245.73 1221.16 192.144 1254.41 148.361C1290.3 100.972 1338.59 68.2077 1386.14 39.8862C1431.82 12.968 1477.12 -9.52825 1520.35 -41.5641C1574.89 -81.9398 1625.47 -137.954 1662.94 -200.53" stroke="#F4F4F4" stroke-miterlimit="10"/>
<path d="M-15.2338 115.408C79.18 36.3797 187.084 -41.629 274.273 -37.8624C335.307 -34.9757 377.046 11.3932 382.836 79.6239C387.273 133.012 372.131 196.434 379.535 246.457C388.587 309.321 434.618 345.26 496.968 342.463C567.213 339.634 650.827 288.151 717.587 291.909C767.597 294.752 802.088 328.609 825.122 371.246C850.392 417.46 859.647 474.102 885.211 518.315C906.674 555.093 938.133 582.572 983.137 575.1C1027.66 567.83 1081.48 522.494 1117.28 469.503C1151.22 419.296 1175.29 363.803 1192.78 309.301C1208.49 260.423 1224.49 209.543 1255.2 165.563C1289.51 116.456 1337.76 81.4518 1384.78 53.8514C1430.82 26.9127 1476.91 5.83549 1521.48 -25.5022C1578.07 -65.481 1631.04 -122.239 1670.71 -185.978" stroke="#F9F9F9" stroke-miterlimit="10"/>
<path d="M-15.8416 119.665C81.3098 39.8718 190.845 -40.8202 280.312 -37.8773C342.224 -35.7322 385.014 10.5751 389.506 80.3482C392.955 134.398 375.139 199.184 379.926 252.552C385.963 319.302 430.281 361.466 491.993 359.31C563.025 356.78 649.264 300.571 718.394 302.465C770.619 303.885 806.201 338.54 830.743 381.174C855.286 423.808 870.954 474.899 895.497 517.533C915.286 552.253 944.304 582.377 989.302 576.286C1033.36 570.336 1084.47 529.385 1121.09 480.315C1157.71 431.244 1181.93 375.311 1199.59 321.488C1214.85 275.051 1227.12 226.979 1255.54 182.702C1288.15 131.797 1336.59 94.7118 1382.97 67.7526C1429.36 40.7933 1476.12 21.3156 1522.04 -9.58413C1580.56 -48.9857 1636.05 -106.668 1677.91 -171.571" stroke="white" stroke-miterlimit="10"/>
</g>
</svg>
