<svg width="775" height="360" viewBox="0 0 775 360" fill="none" xmlns="http://www.w3.org/2000/svg">
<line y1="-0.588343" x2="230.099" y2="-0.588343" transform="matrix(0.866305 0.499516 -0.500484 0.865745 29.3105 -31.998)" stroke="white" stroke-opacity="0.2" stroke-width="1.17669"/>
<line y1="-0.588343" x2="77.8924" y2="-0.588343" transform="matrix(0.850776 0.525528 -0.526511 0.850168 626.516 311.844)" stroke="white" stroke-opacity="0.2" stroke-width="1.17669"/>
<path d="M18.1059 197.474H14.7138L14.6954 196.049H17.775C18.2837 196.049 18.728 195.963 19.108 195.792C19.4879 195.62 19.7821 195.375 19.9905 195.056C20.205 194.731 20.3122 194.345 20.3122 193.898C20.3122 193.408 20.2172 193.009 20.0272 192.703C19.8434 192.39 19.5584 192.164 19.1723 192.023C18.7923 191.876 18.3082 191.802 17.7198 191.802H15.1091V203.734H13.3348V190.35H17.7198C18.4062 190.35 19.0191 190.42 19.5584 190.561C20.0977 190.696 20.5543 190.91 20.9281 191.205C21.3081 191.493 21.5962 191.86 21.7923 192.308C21.9884 192.755 22.0864 193.291 22.0864 193.916C22.0864 194.468 21.9455 194.967 21.6636 195.415C21.3817 195.856 20.9894 196.218 20.4869 196.5C19.9905 196.782 19.4083 196.962 18.7402 197.042L18.1059 197.474ZM18.0232 203.734H14.0151L15.0171 202.291H18.0232C18.587 202.291 19.0651 202.193 19.4573 201.997C19.8556 201.801 20.159 201.525 20.3674 201.17C20.5758 200.808 20.6799 200.382 20.6799 199.892C20.6799 199.395 20.5911 198.966 20.4133 198.605C20.2356 198.243 19.9568 197.964 19.5768 197.768C19.1968 197.572 18.7065 197.474 18.1059 197.474H15.5779L15.5963 196.049H19.0528L19.4297 196.564C20.0732 196.619 20.6187 196.803 21.066 197.116C21.5134 197.422 21.8536 197.814 22.0864 198.292C22.3255 198.77 22.445 199.297 22.445 199.873C22.445 200.707 22.2611 201.412 21.8934 201.988C21.5318 202.558 21.0201 202.993 20.3582 203.293C19.6963 203.587 18.918 203.734 18.0232 203.734ZM39.7158 191.535L35.2848 203.734H33.4738L38.5759 190.35H39.7434L39.7158 191.535ZM43.4297 203.734L38.9896 191.535L38.962 190.35H40.1295L45.2499 203.734H43.4297ZM43.1999 198.779V200.232H35.6801V198.779H43.1999ZM56.8027 190.35H58.5862V202.291H63.1826V190.35H64.9476V202.291H69.5165V190.35H71.2907V203.734H56.8027V190.35ZM108.746 190.35V203.734H106.981V191.802H100.381V203.734H98.6067V190.35H108.746ZM130.163 202.291V203.734H123.076V202.291H130.163ZM123.434 190.35V203.734H121.66V190.35H123.434ZM129.226 196.104V197.548H123.076V196.104H129.226ZM130.071 190.35V191.802H123.076V190.35H130.071ZM146.993 198.485H143.417V197.042H146.993C147.685 197.042 148.246 196.932 148.675 196.711C149.104 196.49 149.417 196.184 149.613 195.792C149.815 195.4 149.916 194.952 149.916 194.45C149.916 193.99 149.815 193.558 149.613 193.153C149.417 192.749 149.104 192.424 148.675 192.179C148.246 191.928 147.685 191.802 146.993 191.802H143.83V203.734H142.056V190.35H146.993C148.004 190.35 148.859 190.524 149.558 190.874C150.256 191.223 150.786 191.707 151.148 192.326C151.51 192.939 151.69 193.641 151.69 194.431C151.69 195.289 151.51 196.022 151.148 196.628C150.786 197.235 150.256 197.698 149.558 198.016C148.859 198.329 148.004 198.485 146.993 198.485ZM171.71 199.478H173.475C173.383 200.324 173.141 201.081 172.749 201.749C172.356 202.417 171.802 202.947 171.085 203.339C170.368 203.725 169.473 203.918 168.4 203.918C167.616 203.918 166.902 203.771 166.258 203.477C165.621 203.183 165.073 202.766 164.613 202.227C164.153 201.681 163.798 201.029 163.547 200.269C163.301 199.503 163.179 198.651 163.179 197.713V196.38C163.179 195.442 163.301 194.594 163.547 193.834C163.798 193.068 164.156 192.412 164.622 191.866C165.094 191.321 165.661 190.901 166.323 190.607C166.985 190.313 167.729 190.166 168.557 190.166C169.568 190.166 170.423 190.356 171.122 190.736C171.82 191.116 172.363 191.643 172.749 192.317C173.141 192.985 173.383 193.76 173.475 194.643H171.71C171.624 194.018 171.465 193.481 171.232 193.034C170.999 192.58 170.668 192.231 170.239 191.986C169.81 191.741 169.249 191.618 168.557 191.618C167.962 191.618 167.438 191.732 166.985 191.958C166.537 192.185 166.16 192.507 165.854 192.924C165.554 193.34 165.327 193.84 165.174 194.422C165.021 195.004 164.944 195.651 164.944 196.362V197.713C164.944 198.369 165.011 198.985 165.146 199.561C165.287 200.137 165.499 200.643 165.78 201.078C166.062 201.513 166.421 201.856 166.856 202.107C167.291 202.352 167.806 202.475 168.4 202.475C169.154 202.475 169.755 202.355 170.202 202.116C170.65 201.877 170.987 201.534 171.213 201.087C171.446 200.639 171.612 200.103 171.71 199.478ZM195.894 196.619V197.465C195.894 198.47 195.768 199.371 195.517 200.168C195.266 200.964 194.904 201.641 194.432 202.199C193.96 202.757 193.393 203.183 192.731 203.477C192.076 203.771 191.34 203.918 190.525 203.918C189.735 203.918 189.008 203.771 188.346 203.477C187.691 203.183 187.121 202.757 186.637 202.199C186.158 201.641 185.788 200.964 185.524 200.168C185.261 199.371 185.129 198.47 185.129 197.465V196.619C185.129 195.614 185.258 194.716 185.515 193.926C185.779 193.129 186.149 192.452 186.627 191.894C187.105 191.33 187.672 190.901 188.328 190.607C188.99 190.313 189.716 190.166 190.507 190.166C191.322 190.166 192.057 190.313 192.713 190.607C193.375 190.901 193.942 191.33 194.414 191.894C194.892 192.452 195.256 193.129 195.508 193.926C195.765 194.716 195.894 195.614 195.894 196.619ZM194.138 197.465V196.601C194.138 195.804 194.055 195.099 193.89 194.486C193.73 193.873 193.494 193.359 193.182 192.942C192.869 192.525 192.486 192.21 192.033 191.995C191.585 191.781 191.077 191.673 190.507 191.673C189.955 191.673 189.456 191.781 189.008 191.995C188.567 192.21 188.187 192.525 187.868 192.942C187.556 193.359 187.314 193.873 187.142 194.486C186.971 195.099 186.885 195.804 186.885 196.601V197.465C186.885 198.268 186.971 198.979 187.142 199.598C187.314 200.21 187.559 200.728 187.878 201.151C188.202 201.568 188.585 201.884 189.027 202.098C189.474 202.313 189.974 202.42 190.525 202.42C191.101 202.42 191.613 202.313 192.06 202.098C192.508 201.884 192.885 201.568 193.191 201.151C193.504 200.728 193.74 200.21 193.899 199.598C194.058 198.979 194.138 198.268 194.138 197.465ZM216.989 196.104V197.548H209.745V196.104H216.989ZM210.021 190.35V203.734H208.246V190.35H210.021ZM218.533 190.35V203.734H216.768V190.35H218.533ZM236.503 191.535L232.072 203.734H230.261L235.363 190.35H236.53L236.503 191.535ZM240.217 203.734L235.776 191.535L235.749 190.35H236.916L242.037 203.734H240.217ZM239.987 198.779V200.232H232.467V198.779H239.987ZM262.295 190.35V191.802H256.173V190.35H262.295ZM263.821 190.35V203.734H262.047V190.35H263.821ZM255.566 190.35H257.331L257.028 196.904C256.985 197.848 256.911 198.691 256.807 199.432C256.709 200.168 256.568 200.808 256.384 201.353C256.2 201.893 255.961 202.34 255.667 202.696C255.373 203.045 255.011 203.305 254.582 203.477C254.16 203.649 253.651 203.734 253.056 203.734H252.578V202.291L252.946 202.264C253.289 202.239 253.583 202.162 253.829 202.034C254.08 201.899 254.291 201.697 254.463 201.427C254.641 201.157 254.785 200.808 254.895 200.379C255.005 199.95 255.091 199.426 255.152 198.807C255.22 198.182 255.272 197.453 255.309 196.619L255.566 190.35ZM278.012 195.801H281.662C282.643 195.801 283.47 195.966 284.144 196.297C284.818 196.622 285.33 197.079 285.679 197.667C286.029 198.255 286.203 198.945 286.203 199.735C286.203 200.324 286.105 200.863 285.909 201.353C285.713 201.838 285.422 202.26 285.036 202.622C284.65 202.977 284.175 203.253 283.611 203.449C283.047 203.639 282.397 203.734 281.662 203.734H276.661V190.35H278.435V202.291H281.662C282.318 202.291 282.848 202.172 283.252 201.933C283.663 201.687 283.963 201.369 284.153 200.977C284.343 200.584 284.438 200.164 284.438 199.717C284.438 199.27 284.343 198.859 284.153 198.485C283.963 198.111 283.663 197.814 283.252 197.594C282.848 197.367 282.318 197.253 281.662 197.253H278.012V195.801ZM306.977 196.104V197.548H299.733V196.104H306.977ZM300.008 190.35V203.734H298.234V190.35H300.008ZM308.521 190.35V203.734H306.756V190.35H308.521ZM322.804 195.801H326.454C327.434 195.801 328.262 195.966 328.936 196.297C329.61 196.622 330.122 197.079 330.471 197.667C330.82 198.255 330.995 198.945 330.995 199.735C330.995 200.324 330.897 200.863 330.701 201.353C330.505 201.838 330.214 202.26 329.827 202.622C329.441 202.977 328.966 203.253 328.403 203.449C327.839 203.639 327.189 203.734 326.454 203.734H321.453V190.35H323.227V202.291H326.454C327.109 202.291 327.64 202.172 328.044 201.933C328.455 201.687 328.755 201.369 328.945 200.977C329.135 200.584 329.23 200.164 329.23 199.717C329.23 199.27 329.135 198.859 328.945 198.485C328.755 198.111 328.455 197.814 328.044 197.594C327.64 197.367 327.109 197.253 326.454 197.253H322.804V195.801ZM334.387 190.35V203.734H332.613V190.35H334.387ZM349.203 200.664L355.795 190.35H357.569V203.734H355.795V193.411L349.203 203.734H347.438V190.35H349.203V200.664ZM353.91 187.031H355.289C355.289 187.509 355.179 187.935 354.958 188.309C354.738 188.676 354.422 188.965 354.011 189.173C353.601 189.381 353.113 189.485 352.55 189.485C351.698 189.485 351.024 189.259 350.527 188.805C350.037 188.346 349.792 187.754 349.792 187.031H351.171C351.171 187.393 351.275 187.711 351.483 187.987C351.692 188.263 352.047 188.401 352.55 188.401C353.04 188.401 353.389 188.263 353.598 187.987C353.806 187.711 353.91 187.393 353.91 187.031Z" fill="white" fill-opacity="0.2"/>
<mask id="mask0_6_1399" style="mask-type:alpha" maskUnits="userSpaceOnUse" x="334" y="143" width="441" height="172">
<path d="M334.021 143.078H774.67V314.286H630.929L334.021 143.078Z" fill="#C4C4C4"/>
</mask>
<g mask="url(#mask0_6_1399)">
<path d="M318.031 298.793H306.724V264.926H251.456V253.619H306.724V219.698H318.031V298.793ZM245.83 298.793H234.523V219.698H245.83V298.793ZM431.434 259.245C431.434 264.724 430.57 269.872 428.842 274.689C427.114 279.506 424.65 283.698 421.451 287.265C418.288 290.832 414.483 293.645 410.033 295.704C405.584 297.763 400.638 298.793 395.196 298.793H368.886C363.407 298.793 358.425 297.763 353.938 295.704C349.452 293.645 345.61 290.832 342.411 287.265C339.248 283.698 336.803 279.506 335.075 274.689C333.346 269.872 332.482 264.724 332.482 259.245C332.482 253.803 333.346 248.692 335.075 243.912C336.803 239.095 339.248 234.903 342.411 231.336C345.61 227.732 349.452 224.901 353.938 222.842C358.425 220.746 363.407 219.698 368.886 219.698H395.196C400.638 219.698 405.584 220.746 410.033 222.842C414.483 224.901 418.288 227.732 421.451 231.336C424.65 234.903 427.114 239.095 428.842 243.912C430.57 248.692 431.434 253.803 431.434 259.245ZM420.127 259.245C420.127 255.347 419.557 251.689 418.417 248.269C417.277 244.849 415.623 241.871 413.453 239.334C411.32 236.76 408.71 234.737 405.621 233.266C402.569 231.759 399.094 231.005 395.196 231.005H368.886C364.988 231.005 361.477 231.759 358.351 233.266C355.262 234.737 352.633 236.76 350.464 239.334C348.331 241.871 346.676 244.849 345.499 248.269C344.359 251.689 343.79 255.347 343.79 259.245C343.79 263.143 344.359 266.82 345.499 270.277C346.676 273.696 348.331 276.693 350.464 279.267C352.633 281.805 355.262 283.809 358.351 285.279C361.477 286.75 364.988 287.486 368.886 287.486H395.196C399.094 287.486 402.569 286.75 405.621 285.279C408.71 283.809 411.32 281.805 413.453 279.267C415.623 276.693 417.277 273.696 418.417 270.277C419.557 266.82 420.127 263.143 420.127 259.245ZM487.474 298.793H476.167V231.005H436.178V219.698H527.463V231.005H487.474V298.793ZM581.021 298.793H569.713V231.005H529.724V219.698H621.009V231.005H581.021V298.793Z" fill="white" fill-opacity="0.2"/>
</g>
<mask id="mask1_6_1399" style="mask-type:alpha" maskUnits="userSpaceOnUse" x="217" y="187" width="464" height="173">
<path d="M680.414 359.002L217.967 359.002V187.794H382.916L680.414 359.002Z" fill="#C4C4C4"/>
</mask>
<g mask="url(#mask1_6_1399)">
<path d="M321.8 277.388C321.8 280.55 321.212 283.51 320.035 286.268C318.858 288.989 317.24 291.379 315.181 293.438C313.159 295.461 310.768 297.06 308.011 298.237C305.289 299.414 302.366 300.002 299.241 300.002H230.515V288.695H299.241C300.822 288.695 302.293 288.401 303.653 287.812C305.014 287.224 306.19 286.415 307.183 285.385C308.213 284.356 309.022 283.161 309.61 281.8C310.198 280.403 310.493 278.932 310.493 277.388C310.493 275.843 310.198 274.391 309.61 273.03C309.022 271.67 308.213 270.474 307.183 269.445C306.19 268.415 305.014 267.606 303.653 267.018C302.293 266.43 300.822 266.135 299.241 266.135H253.129C250.04 266.135 247.117 265.547 244.359 264.37C241.601 263.194 239.193 261.594 237.134 259.572C235.111 257.513 233.493 255.104 232.28 252.346C231.103 249.588 230.515 246.647 230.515 243.521C230.515 240.432 231.103 237.509 232.28 234.751C233.493 231.993 235.111 229.603 237.134 227.581C239.193 225.521 241.601 223.903 244.359 222.727C247.117 221.513 250.04 220.907 253.129 220.907H316.174V232.214H253.129C251.585 232.214 250.114 232.508 248.717 233.096C247.356 233.685 246.161 234.494 245.131 235.523C244.102 236.553 243.293 237.766 242.704 239.164C242.116 240.524 241.822 241.977 241.822 243.521C241.822 245.065 242.116 246.536 242.704 247.934C243.293 249.294 244.102 250.489 245.131 251.519C246.161 252.548 247.356 253.357 248.717 253.946C250.114 254.534 251.585 254.828 253.129 254.828H299.241C302.366 254.828 305.289 255.435 308.011 256.648C310.768 257.825 313.159 259.443 315.181 261.502C317.24 263.525 318.858 265.915 320.035 268.673C321.212 271.394 321.8 274.299 321.8 277.388ZM392.015 300.002H380.708V260.454C380.708 256.556 379.972 252.898 378.501 249.478C377.031 246.058 375.008 243.08 372.434 240.543C369.897 237.969 366.9 235.946 363.444 234.475C360.024 232.968 356.365 232.214 352.467 232.214H346.4V300.002H335.093V220.907H352.467C356.071 220.907 359.527 221.385 362.837 222.341C366.183 223.26 369.309 224.565 372.214 226.257C375.118 227.948 377.766 229.971 380.156 232.324C382.546 234.677 384.624 237.288 386.389 240.156C388.117 237.288 390.176 234.677 392.567 232.324C394.957 229.971 397.604 227.948 400.509 226.257C403.414 224.565 406.521 223.26 409.831 222.341C413.177 221.385 416.652 220.907 420.255 220.907H437.685V300.002H426.378V232.214H420.255C416.358 232.214 412.699 232.968 409.279 234.475C405.859 235.946 402.863 237.969 400.289 240.543C397.751 243.08 395.729 246.058 394.221 249.478C392.75 252.898 392.015 256.556 392.015 260.454V300.002ZM538.457 300.002H456.659V220.907H538.457V232.214H467.966V288.695H538.457V300.002ZM528.86 266.135H473.592V254.828H528.86V266.135Z" fill="white" fill-opacity="0.2"/>
</g>
<mask id="mask2_6_1399" style="mask-type:alpha" maskUnits="userSpaceOnUse" x="-1" y="66" width="471" height="172">
<path d="M469.515 237.805L-0.00104696 237.805V66.5968H172.017L469.515 237.805Z" fill="#C4C4C4"/>
</mask>
<g mask="url(#mask2_6_1399)">
<path d="M95.9961 172.539H14.198V93.4437H95.9961V104.751H25.5052V161.232H95.9961V172.539ZM86.3987 138.673H31.1312V127.365H86.3987V138.673ZM192.521 172.539H177.739L146.796 140.658L115.963 172.539H101.126L139.46 132.991L101.126 93.4437H115.963L192.521 172.539ZM192.521 93.4437L158.048 128.91L150.712 121.353L177.739 93.4437H192.521ZM293.9 121.684C293.9 125.582 293.146 129.259 291.639 132.716C290.168 136.135 288.145 139.132 285.571 141.706C283.034 144.243 280.056 146.247 276.636 147.718C273.216 149.189 269.557 149.925 265.66 149.925H220.265V138.783H265.66C268.013 138.783 270.219 138.342 272.278 137.459C274.338 136.54 276.121 135.308 277.629 133.764C279.173 132.219 280.387 130.417 281.269 128.358C282.152 126.262 282.593 124.038 282.593 121.684C282.593 119.331 282.152 117.124 281.269 115.065C280.387 113.006 279.173 111.223 277.629 109.715C276.121 108.171 274.338 106.957 272.278 106.075C270.219 105.192 268.013 104.751 265.66 104.751H213.922V172.539H202.615V93.4437H265.66C269.557 93.4437 273.216 94.1975 276.636 95.7051C280.056 97.176 283.034 99.1984 285.571 101.772C288.145 104.31 290.168 107.288 291.639 110.708C293.146 114.128 293.9 117.786 293.9 121.684Z" fill="white" fill-opacity="0.2"/>
</g>
<mask id="mask3_6_1399" style="mask-type:alpha" maskUnits="userSpaceOnUse" x="173" y="50" width="433" height="172">
<path d="M173.195 50.1211H605.597V221.329H469.515L173.195 50.1211Z" fill="#C4C4C4"/>
</mask>
<g mask="url(#mask3_6_1399)">
<path d="M147.138 156.132C147.138 160.581 146.285 164.76 144.581 168.669C142.917 172.578 140.63 175.987 137.72 178.898C134.809 181.809 131.399 184.117 127.49 185.821C123.582 187.485 119.403 188.316 114.953 188.316C112.292 188.316 109.714 188.025 107.219 187.443C104.766 186.819 102.437 185.967 100.233 184.886C98.0296 183.763 95.9713 182.412 94.0585 180.832C92.1874 179.252 90.5033 177.484 89.0063 175.53C86.054 179.439 82.3532 182.557 77.904 184.886C73.4547 187.173 68.5688 188.316 63.2463 188.316C58.7971 188.316 54.6181 187.485 50.7094 185.821C46.8007 184.117 43.391 181.809 40.4802 178.898C37.5695 175.987 35.2617 172.578 33.5569 168.669C31.8936 164.76 31.0619 160.581 31.0619 156.132V98.8737H43.786V156.132C43.786 158.835 44.285 161.371 45.283 163.741C46.3225 166.07 47.7155 168.108 49.4619 169.854C51.25 171.6 53.3083 172.993 55.6369 174.033C58.007 175.031 60.5435 175.53 63.2463 175.53C65.866 175.53 68.3193 175.052 70.6063 174.095C72.9349 173.139 74.9517 171.829 76.6565 170.166C78.403 168.503 79.7959 166.548 80.8355 164.303C81.9166 162.016 82.5196 159.583 82.6443 157.005V156.132V98.8737H95.5555V156.132C95.5555 158.835 96.0545 161.371 97.0524 163.741C98.092 166.07 99.485 168.108 101.231 169.854C102.978 171.6 105.015 172.993 107.344 174.033C109.714 175.031 112.251 175.53 114.953 175.53C117.615 175.53 120.13 175.031 122.501 174.033C124.871 172.993 126.929 171.6 128.675 169.854C130.464 168.108 131.856 166.07 132.854 163.741C133.894 161.371 134.414 158.835 134.414 156.132V98.8737H147.138V156.132ZM265.771 111.66L183.626 175.53H265.771V188.316H162.419V175.53L245.063 111.66H162.419V98.8737H265.771V111.66ZM374.3 188.316H281.801V98.8737H374.3V111.66H294.587V175.53H374.3V188.316ZM363.447 150.019H300.949V137.233H363.447V150.019ZM493.432 188.316H476.155L449.334 162.744H410.164V150.144H461.497C464.158 150.144 466.653 149.645 468.982 148.647C471.31 147.608 473.327 146.215 475.032 144.468C476.778 142.722 478.151 140.684 479.149 138.356C480.147 135.986 480.646 133.47 480.646 130.809C480.646 128.147 480.147 125.652 479.149 123.324C478.151 120.995 476.778 118.979 475.032 117.274C473.327 115.527 471.31 114.155 468.982 113.157C466.653 112.159 464.158 111.66 461.497 111.66H402.991V188.316H390.205V98.8737H461.497C465.905 98.8737 470.042 99.7261 473.909 101.431C477.776 103.094 481.145 105.381 484.014 108.292C486.924 111.161 489.211 114.529 490.875 118.396C492.58 122.264 493.432 126.401 493.432 130.809C493.432 134.8 492.746 138.584 491.374 142.16C490.001 145.695 488.11 148.876 485.698 151.704C483.286 154.49 480.438 156.818 477.153 158.689C473.909 160.519 470.396 161.746 466.612 162.369L493.432 188.316ZM557.863 188.316H545.077V111.66H499.856V98.8737H603.084V111.66H557.863V188.316ZM80.4613 307.316H67.6748V230.66H22.4545V217.874H125.682V230.66H80.4613V307.316ZM236.768 307.316H223.981V281.744H152.627V269.019H223.981V230.66H178.137C173.771 230.66 169.654 231.513 165.787 233.217C161.92 234.881 158.552 237.168 155.683 240.078C152.814 242.948 150.527 246.316 148.822 250.183C147.159 254.05 146.327 258.187 146.327 262.595V307.316H133.541V262.595C133.541 258.478 134.06 254.528 135.1 250.744C136.181 246.919 137.678 243.363 139.591 240.078C141.545 236.752 143.874 233.737 146.576 231.034C149.321 228.29 152.336 225.941 155.621 223.986C158.947 222.032 162.502 220.535 166.286 219.495C170.07 218.414 174.021 217.874 178.137 217.874H236.768V307.316ZM322.593 307.316H309.806V262.595C309.806 258.187 308.975 254.05 307.311 250.183C305.648 246.316 303.361 242.948 300.45 240.078C297.581 237.168 294.192 234.881 290.284 233.217C286.416 231.513 282.279 230.66 277.871 230.66H271.01V307.316H258.224V217.874H277.871C281.946 217.874 285.855 218.414 289.597 219.495C293.381 220.535 296.916 222.011 300.201 223.924C303.486 225.837 306.48 228.124 309.183 230.785C311.885 233.446 314.235 236.398 316.231 239.642C318.185 236.398 320.514 233.446 323.216 230.785C325.919 228.124 328.913 225.837 332.198 223.924C335.483 222.011 338.997 220.535 342.739 219.495C346.523 218.414 350.453 217.874 354.528 217.874H374.237V307.316H361.451V230.66H354.528C350.12 230.66 345.983 231.513 342.115 233.217C338.248 234.881 334.859 237.168 331.949 240.078C329.079 242.948 326.792 246.316 325.088 250.183C323.424 254.05 322.593 258.187 322.593 262.595V307.316Z" fill="white" fill-opacity="0.2"/>
</g>
</svg>
