<?xml version="1.0" encoding="utf-8"?><svg viewBox="0 0 56 56" xmlns="http://www.w3.org/2000/svg" xmlns:xlink="http://www.w3.org/1999/xlink"><style>:root>svg{display:none}:root>svg:target{display:block}</style><svg viewBox="0 0 47 45" id="dzen" xmlns="http://www.w3.org/2000/svg"><g filter="url(#aa)"><path d="M42.14 17.68h.009a.872.872 0 00.625-.26.785.785 0 00.223-.62C42.142 7.88 34.699.814 25.297.002a.894.894 0 00-.656.211.789.789 0 00-.273.603c.148 11.854 1.796 16.698 17.771 16.864zm0 1.639c-15.976.165-17.623 5.01-17.772 16.864a.788.788 0 00.274.602.882.882 0 00.655.212c9.402-.813 16.846-7.876 17.7-16.797a.782.782 0 00-.223-.621.922.922 0 00-.635-.26zM21.646.007C12.274.843 4.855 7.905 4.004 16.8a.782.782 0 00.223.621c.161.166.388.26.625.26h.01C20.785 17.508 22.43 12.665 22.58.82a.79.79 0 00-.274-.603.888.888 0 00-.658-.21zM4.862 19.317c-.265-.027-.473.092-.636.26a.785.785 0 00-.223.621c.85 8.896 8.271 15.959 17.644 16.795a.879.879 0 00.657-.21.791.791 0 00.274-.605c-.15-11.845-1.793-16.686-17.716-16.86z" fill-opacity=".5"/></g><defs><filter id="aa" x="0" y="0" width="47" height="45" filterUnits="userSpaceOnUse" color-interpolation-filters="sRGB"><feFlood flood-opacity="0" result="BackgroundImageFix"/><feColorMatrix in="SourceAlpha" values="0 0 0 0 0 0 0 0 0 0 0 0 0 0 0 0 0 0 127 0" result="hardAlpha"/><feOffset dy="4"/><feGaussianBlur stdDeviation="2"/><feComposite in2="hardAlpha" operator="out"/><feColorMatrix values="0 0 0 0 0 0 0 0 0 0 0 0 0 0 0 0 0 0 0.25 0"/><feBlend in2="BackgroundImageFix" result="effect1_dropShadow_205_13031"/><feBlend in="SourceGraphic" in2="effect1_dropShadow_205_13031" result="shape"/></filter></defs></svg><svg viewBox="0 0 32 29" id="mail" xmlns="http://www.w3.org/2000/svg"><path d="M5.334 4.723h21.333c1.467 0 2.667 1.05 2.667 2.336v14.015c0 1.285-1.2 2.336-2.667 2.336H5.334c-1.467 0-2.667-1.051-2.667-2.336V7.059c0-1.285 1.2-2.336 2.667-2.336z"/><path d="M29.334 7.059L16 15.234 2.667 7.06"/></svg><svg viewBox="0 0 56 56" id="pdf" xmlns="http://www.w3.org/2000/svg"><path d="M36.985 0H7.963C7.155 0 6.5.655 6.5 1.926V55c0 .345.655 1 1.463 1h40.074c.808 0 1.463-.655 1.463-1V12.978c0-.696-.093-.92-.257-1.085L37.607.257A.884.884 0 0036.985 0z"/><path d="M37.5.151V12h11.849zM19.514 33.324c-.348 0-.682-.113-.967-.326-1.041-.781-1.181-1.65-1.115-2.242.182-1.628 2.195-3.332 5.985-5.068 1.504-3.296 2.935-7.357 3.788-10.75-.998-2.172-1.968-4.99-1.261-6.643.248-.579.557-1.023 1.134-1.215a4.91 4.91 0 011.016-.172c.504 0 .947.649 1.261 1.049.295.376.964 1.173-.373 6.802 1.348 2.784 3.258 5.62 5.088 7.562 1.311-.237 2.439-.358 3.358-.358 1.566 0 2.515.365 2.902 1.117.32.622.189 1.349-.39 2.16-.557.779-1.325 1.191-2.22 1.191-1.216 0-2.632-.768-4.211-2.285-2.837.593-6.15 1.651-8.828 2.822-.836 1.774-1.637 3.203-2.383 4.251-1.025 1.435-1.909 2.105-2.784 2.105zm2.662-5.126c-2.137 1.201-3.008 2.188-3.071 2.744-.01.092-.037.334.431.692.149-.047 1.019-.444 2.64-3.436zm13.637-4.442c.815.627 1.014.944 1.547.944.234 0 .901-.01 1.21-.441.149-.209.207-.343.23-.415-.123-.065-.286-.197-1.175-.197-.505.001-1.14.023-1.812.109zm-7.47-6.582a71.291 71.291 0 01-2.674 7.564 49.966 49.966 0 016.496-2.02c-1.35-1.568-2.699-3.526-3.822-5.544zm-.607-8.462c-.098.033-1.33 1.757.096 3.216.949-2.115-.053-3.23-.096-3.216zM48.037 56H7.963A1.463 1.463 0 016.5 54.537V39h43v15.537c0 .808-.655 1.463-1.463 1.463z"/><path d="M17.385 53h-1.641V42.924h2.898c.428 0 .852.068 1.271.205.419.137.795.342 1.128.615.333.273.602.604.807.991s.308.822.308 1.306c0 .511-.087.973-.26 1.388a2.9 2.9 0 01-.725 1.046c-.31.282-.684.501-1.121.656s-.921.232-1.449.232h-1.217V53zm0-8.832v3.992h1.504c.2 0 .398-.034.595-.103.196-.068.376-.18.54-.335.164-.155.296-.371.396-.649.1-.278.15-.622.15-1.032 0-.164-.023-.354-.068-.567a1.637 1.637 0 00-.28-.615 1.657 1.657 0 00-.595-.492c-.255-.132-.593-.198-1.012-.198h-1.23zm14.834 3.514c0 .829-.089 1.538-.267 2.126s-.403 1.08-.677 1.477-.581.709-.923.937-.672.398-.991.513a4.094 4.094 0 01-.875.219c-.264.03-.46.046-.588.046h-3.814V42.924h3.035c.848 0 1.593.135 2.235.403s1.176.627 1.6 1.073.74.955.95 1.524c.21.57.315 1.156.315 1.758zm-4.867 4.115c1.112 0 1.914-.355 2.406-1.066s.738-1.741.738-3.09c0-.419-.05-.834-.15-1.244-.101-.41-.294-.781-.581-1.114s-.677-.602-1.169-.807-1.13-.308-1.914-.308h-.957v7.629h1.627zm8.914-7.629v3.172h4.211v1.121h-4.211V53h-1.668V42.924H40.9v1.244h-4.634z"/></svg><svg viewBox="0 0 36 32" id="phone" xmlns="http://www.w3.org/2000/svg"><path d="M9.93 14.427c2.16 3.718 5.64 6.754 9.885 8.659l3.3-2.89c.405-.356 1.005-.474 1.53-.316 1.68.486 3.495.749 5.355.749.825 0 1.5.591 1.5 1.314v4.585c0 .723-.675 1.314-1.5 1.314-14.085 0-25.5-9.999-25.5-22.337 0-.722.675-1.314 1.5-1.314h5.25c.825 0 1.5.592 1.5 1.314 0 1.643.3 3.22.855 4.691.165.46.045.972-.375 1.34l-3.3 2.891z"/></svg><svg viewBox="0 0 42 38" id="telegram" xmlns="http://www.w3.org/2000/svg"><g filter="url(#ea)"><path d="M34.734 3.195L30.74 22.212c-.298 1.311-1.133 1.669-2.265 1.013l-6.14-4.53-2.921 2.86c-.358.359-.597.597-1.252.597l.417-6.26L29.965 5.64c.537-.417-.12-.715-.775-.238l-14.069 8.822-6.02-1.848c-1.312-.417-1.372-1.311.238-1.967l23.726-9.12c1.073-.418 2.027.238 1.669 1.907z" fill-opacity=".5" shape-rendering="crispEdges"/></g><defs><filter id="ea" x=".947" y=".87" width="40.928" height="36.576" filterUnits="userSpaceOnUse" color-interpolation-filters="sRGB"><feFlood flood-opacity="0" result="BackgroundImageFix"/><feColorMatrix in="SourceAlpha" values="0 0 0 0 0 0 0 0 0 0 0 0 0 0 0 0 0 0 127 0" result="hardAlpha"/><feOffset dy="6.783"/><feGaussianBlur stdDeviation="3.391"/><feComposite in2="hardAlpha" operator="out"/><feColorMatrix values="0 0 0 0 0 0 0 0 0 0 0 0 0 0 0 0 0 0 0.25 0"/><feBlend in2="BackgroundImageFix" result="effect1_dropShadow_62_1991"/><feBlend in="SourceGraphic" in2="effect1_dropShadow_62_1991" result="shape"/></filter></defs></svg><svg viewBox="0 0 32 29" id="time" xmlns="http://www.w3.org/2000/svg"><path d="M16 26.32c7.364 0 13.334-5.23 13.334-11.68 0-6.45-5.97-11.68-13.334-11.68-7.363 0-13.333 5.23-13.333 11.68 0 6.45 5.97 11.68 13.333 11.68z"/><path d="M16 7.633v7.007l4 3.504"/></svg><svg viewBox="0 0 37 37" id="vk" xmlns="http://www.w3.org/2000/svg"><g clip-path="url(#ga)" filter="url(#gb)"><path fill-rule="evenodd" clip-rule="evenodd" d="M6.039 2.039C4 4.077 4 7.358 4 13.92v1.16c0 6.562 0 9.843 2.039 11.882C8.077 29 11.358 29 17.92 29h1.16c6.562 0 9.843 0 11.882-2.038C33 24.922 33 21.642 33 15.08v-1.16c0-6.562 0-9.843-2.038-11.881C28.922 0 25.642 0 19.08 0h-1.16C11.358 0 8.077 0 6.039 2.039zM8.894 8.82c.157 7.54 3.927 12.071 10.536 12.071h.375v-4.314c2.429.242 4.265 2.018 5.003 4.314h3.431c-.942-3.431-3.42-5.329-4.966-6.054 1.547-.894 3.721-3.069 4.241-6.017h-3.117c-.677 2.392-2.683 4.567-4.592 4.773V8.82h-3.117v8.362c-1.934-.484-4.375-2.828-4.483-8.362H8.894z" fill-opacity=".5"/></g><defs><clipPath id="ga"><path transform="translate(4)" d="M0 0h29v29H0z"/></clipPath><filter id="gb" x="0" y="0" width="37" height="37" filterUnits="userSpaceOnUse" color-interpolation-filters="sRGB"><feFlood flood-opacity="0" result="BackgroundImageFix"/><feColorMatrix in="SourceAlpha" values="0 0 0 0 0 0 0 0 0 0 0 0 0 0 0 0 0 0 127 0" result="hardAlpha"/><feOffset dy="4"/><feGaussianBlur stdDeviation="2"/><feComposite in2="hardAlpha" operator="out"/><feColorMatrix values="0 0 0 0 0 0 0 0 0 0 0 0 0 0 0 0 0 0 0.25 0"/><feBlend in2="BackgroundImageFix" result="effect1_dropShadow_62_1992"/><feBlend in="SourceGraphic" in2="effect1_dropShadow_62_1992" result="shape"/></filter></defs></svg><svg viewBox="0 0 34 33" id="whatsapp" xmlns="http://www.w3.org/2000/svg"><path d="M17 3.904C9.49 3.904 3.4 9.633 3.4 16.7c0 2.496.77 4.819 2.085 6.787l-1.998 4.539c-.24.543.035 1.166.613 1.393.29.113.6.104.868 0l4.823-1.88a14.139 14.139 0 007.21 1.961c7.509 0 13.6-5.732 13.6-12.8C30.6 9.633 24.51 3.904 17 3.904zm0 23.463a11.82 11.82 0 01-6.005-1.635l-.991-.585-3.376 1.317 1.398-3.18-.621-.932A10.154 10.154 0 015.667 16.7c0-5.88 5.085-10.663 11.333-10.663 6.25 0 11.334 4.783 11.334 10.663S23.249 27.367 17 27.367z"/><path d="M21.808 21.224c-.883.833-2.32.833-3.206 0l-6.409-6.032a2.045 2.045 0 010-3.017l1.602-1.507 2.404 3.77-1.202 1.13 3.204 3.017 1.202-1.131 4.01 2.264-1.605 1.506z"/></svg></svg>