<svg width="47" height="45" viewBox="0 0 47 45" fill="none" xmlns="http://www.w3.org/2000/svg">
<g filter="url(#filter0_d_205_13031)">
<path d="M42.1393 17.6806C42.1427 17.6806 42.1453 17.6806 42.1487 17.6806C42.3862 17.6806 42.6127 17.5861 42.7736 17.4206C42.937 17.2525 43.0179 17.0272 42.9966 16.7994C42.1419 7.87962 34.6986 0.815182 25.2963 0.00260301C25.0579 -0.0151671 24.8179 0.0583366 24.6408 0.214229C24.4637 0.369314 24.365 0.588209 24.3675 0.816798C24.5156 12.6711 26.1638 17.5151 42.1393 17.6806ZM42.1393 19.3187C26.1638 19.4843 24.5165 24.3283 24.3684 36.1826C24.3658 36.4112 24.4646 36.6301 24.6416 36.7851C24.8 36.9233 25.0069 37 25.2197 37C25.2452 37 25.2716 36.9992 25.2972 36.9968C34.6994 36.1842 42.1427 29.1206 42.9966 20.2C43.0179 19.9722 42.9379 19.7468 42.7736 19.5788C42.6093 19.4108 42.3803 19.3276 42.1393 19.3187ZM21.6466 0.00664176C12.2742 0.842645 4.85469 7.90546 4.0042 16.801C3.98292 17.0288 4.06294 17.2542 4.22725 17.4222C4.38816 17.5878 4.61546 17.6815 4.85214 17.6815C4.85554 17.6815 4.85895 17.6815 4.86235 17.6815C20.785 17.5078 22.429 12.6662 22.5788 0.820029C22.5814 0.59144 22.4818 0.371737 22.3047 0.216652C22.1259 0.0615676 21.8867 -0.0143593 21.6466 0.00664176ZM4.8615 19.3179C4.59674 19.2897 4.38901 19.4092 4.2264 19.5772C4.06294 19.7452 3.98206 19.9706 4.00335 20.1984C4.85384 29.0939 12.2742 36.1567 21.6466 36.9927C21.673 36.9952 21.7002 36.996 21.7266 36.996C21.9395 36.996 22.1455 36.92 22.3038 36.7819C22.4809 36.6268 22.5805 36.4071 22.578 36.1785C22.4281 24.3331 20.7851 19.4916 4.8615 19.3179Z" fill="#919093" fill-opacity="0.5"/>
</g>
<defs>
<filter id="filter0_d_205_13031" x="0" y="0" width="47" height="45" filterUnits="userSpaceOnUse" color-interpolation-filters="sRGB">
<feFlood flood-opacity="0" result="BackgroundImageFix"/>
<feColorMatrix in="SourceAlpha" type="matrix" values="0 0 0 0 0 0 0 0 0 0 0 0 0 0 0 0 0 0 127 0" result="hardAlpha"/>
<feOffset dy="4"/>
<feGaussianBlur stdDeviation="2"/>
<feComposite in2="hardAlpha" operator="out"/>
<feColorMatrix type="matrix" values="0 0 0 0 0 0 0 0 0 0 0 0 0 0 0 0 0 0 0.25 0"/>
<feBlend mode="normal" in2="BackgroundImageFix" result="effect1_dropShadow_205_13031"/>
<feBlend mode="normal" in="SourceGraphic" in2="effect1_dropShadow_205_13031" result="shape"/>
</filter>
</defs>
</svg>
