<svg width="36" height="32" viewBox="0 0 36 32" fill="none" xmlns="http://www.w3.org/2000/svg">
<path d="M9.93 14.427C12.09 18.1455 15.57 21.1807 19.815 23.0859L23.115 20.1952C23.52 19.8405 24.12 19.7222 24.645 19.8799C26.325 20.366 28.14 20.6288 30 20.6288C30.825 20.6288 31.5 21.2201 31.5 21.9428V26.5284C31.5 27.2511 30.825 27.8424 30 27.8424C15.915 27.8424 4.5 17.8433 4.5 5.50535C4.5 4.78268 5.175 4.19141 6 4.19141H11.25C12.075 4.19141 12.75 4.78268 12.75 5.50535C12.75 7.14778 13.05 8.72451 13.605 10.1961C13.77 10.656 13.65 11.1684 13.23 11.5363L9.93 14.427Z" fill="#CDCDCD"/>
</svg>
