<svg width="34" height="33" viewBox="0 0 34 33" fill="none" xmlns="http://www.w3.org/2000/svg">
<path d="M17.0004 3.9043C9.48979 3.9043 3.40039 9.63288 3.40039 16.7004C3.40039 19.196 4.17083 21.5185 5.48459 23.4868L3.48675 28.0258C3.24773 28.5694 3.52211 29.1923 4.10011 29.4191C4.39013 29.5318 4.69987 29.5231 4.96779 29.4191L9.79137 27.5382C11.8827 28.7735 14.3484 29.5004 17.0004 29.5004C24.51 29.5004 30.6004 23.768 30.6004 16.7004C30.6004 9.63288 24.51 3.9043 17.0004 3.9043ZM17.0004 27.3673C14.8829 27.3673 12.8058 26.8007 10.995 25.7324L10.0035 25.1473L6.62767 26.4635L8.02643 23.2849L7.40457 22.3516C6.26659 20.6479 5.66717 18.6937 5.66717 16.7004C5.66717 10.8208 10.7515 6.03704 17.0004 6.03704C23.2492 6.03704 28.3336 10.8205 28.3336 16.7004C28.3336 22.5807 23.2492 27.3673 17.0004 27.3673Z" fill="#CDCDCD"/>
<path d="M21.8082 21.2239C20.9249 22.057 19.4884 22.057 18.6016 21.2239C18.6016 21.2239 12.1923 15.1916 12.1933 15.1916C11.308 14.3585 11.308 13.0087 12.1933 12.1755L13.7951 10.668L16.1989 14.4375L14.997 15.5685L18.2011 18.585L19.403 17.454L23.4126 19.7179L21.8082 21.2239Z" fill="#CDCDCD"/>
</svg>
